<svg id="Layer_1" data-name="Layer 1" xmlns="http://www.w3.org/2000/svg" xmlns:xlink="http://www.w3.org/1999/xlink" viewBox="0 0 245.45 350"><defs><style>.cls-1{fill:url(#linear-gradient);}.cls-2{fill:url(#linear-gradient-2);}</style><linearGradient id="linear-gradient" x1="134.94" y1="316.72" x2="265.3" y2="186.36" gradientUnits="userSpaceOnUse"><stop offset="0" stop-color="#fe8069"/><stop offset="1" stop-color="#ff5f6d"/></linearGradient><linearGradient id="linear-gradient-2" x1="134.94" y1="212.17" x2="265.3" y2="81.81" xlink:href="#linear-gradient"/></defs><title>solid-logo-gradients</title><path class="cls-1" d="M187.08,134.21l-27.48,27.48a4.61,4.61,0,0,0,0,6.52l17.6,17.6a4.61,4.61,0,0,0,6.52,0l16.39-16.39,78.22,78.22a4.61,4.61,0,0,1,0,6.52l-75,75a4.61,4.61,0,0,1-6.52,0l-75-75a4.61,4.61,0,0,1,0-6.52l11-11a4.61,4.61,0,0,0,0-6.52l-17.6-17.6a4.61,4.61,0,0,0-6.52,0l-26,26a18.44,18.44,0,0,0,0,26.07L187.08,368.86a18.44,18.44,0,0,0,26.07,0L317.44,264.58a18.44,18.44,0,0,0,0-26.07L213.15,134.21A18.44,18.44,0,0,0,187.08,134.21Z" transform="translate(-77.39 -24.26)"/><path class="cls-2" d="M240.82,230.13l-18.25-18.25a4.61,4.61,0,0,0-6.52,0l-12.67,12.67a4.61,4.61,0,0,1-6.52,0l-75-75a4.61,4.61,0,0,1,0-6.52l75-75a4.61,4.61,0,0,1,6.52,0l75,75a4.61,4.61,0,0,1,0,6.52l-12.09,12.09a4.61,4.61,0,0,0,0,6.52l18.25,18.25a4.61,4.61,0,0,0,6.52,0L317.44,160a18.44,18.44,0,0,0,0-26.07L213.15,29.66a18.44,18.44,0,0,0-26.07,0L82.79,134a18.44,18.44,0,0,0,0,26.07L187.08,264.31a18.44,18.44,0,0,0,26.07,0l27.67-27.67A4.61,4.61,0,0,0,240.82,230.13Z" transform="translate(-77.39 -24.26)"/></svg>