<svg id="Layer_1" data-name="Layer 1" xmlns="http://www.w3.org/2000/svg" xmlns:xlink="http://www.w3.org/1999/xlink" viewBox="0 0 350 350"><defs><style>.cls-1{fill:url(#linear-gradient);}.cls-2{fill:#f8f9fa;}</style><linearGradient id="linear-gradient" x1="51.26" y1="298.74" x2="298.74" y2="51.26" gradientUnits="userSpaceOnUse"><stop offset="0" stop-color="#fe8069"/><stop offset="1" stop-color="#ff5f6d"/></linearGradient></defs><title>solid-logo-round-gradients</title><circle class="cls-1" cx="175" cy="175" r="175"/><path class="cls-2" d="M192.67,162.09L177,177.79a2.63,2.63,0,0,0,0,3.72L187,191.57a2.63,2.63,0,0,0,3.72,0l9.37-9.37,44.7,44.7a2.63,2.63,0,0,1,0,3.72L202,273.46a2.63,2.63,0,0,1-3.72,0l-42.83-42.83a2.63,2.63,0,0,1,0-3.72l6.28-6.27a2.63,2.63,0,0,0,0-3.72l-10.06-10.06a2.63,2.63,0,0,0-3.72,0l-14.84,14.84a10.53,10.53,0,0,0,0,14.9l59.59,59.59a10.53,10.53,0,0,0,14.9,0l59.59-59.59a10.53,10.53,0,0,0,0-14.9l-59.59-59.59A10.53,10.53,0,0,0,192.67,162.09Z" transform="translate(-25 -25)"/><path class="cls-2" d="M223.38,216.9l-10.43-10.43a2.63,2.63,0,0,0-3.72,0L202,213.71a2.63,2.63,0,0,1-3.72,0l-42.83-42.83a2.63,2.63,0,0,1,0-3.72l42.83-42.83a2.63,2.63,0,0,1,3.72,0l42.83,42.83a2.63,2.63,0,0,1,0,3.72l-6.91,6.91a2.63,2.63,0,0,0,0,3.72l10.43,10.43a2.63,2.63,0,0,0,3.72,0l15.1-15.1a10.53,10.53,0,0,0,0-14.9l-59.59-59.59a10.53,10.53,0,0,0-14.9,0l-59.59,59.59a10.53,10.53,0,0,0,0,14.9l59.59,59.59a10.53,10.53,0,0,0,14.9,0l15.81-15.81A2.63,2.63,0,0,0,223.38,216.9Z" transform="translate(-25 -25)"/></svg>