<svg id="Layer_1" data-name="Layer 1" xmlns="http://www.w3.org/2000/svg" viewBox="0 0 350 350"><defs><style>.cls-1{fill: #4776E6;}</style></defs><title>solid_logo_square</title><rect class="cls-1" x="100" y="100" width="48" height="48"/><path class="cls-1" d="M357.32,125H281a6,6,0,0,0-6,6v36a6,6,0,0,0,6,6h48V329H173V298.95a6,6,0,0,0-5.95-5.95H131a6,6,0,0,0-6,6V357.5A17.5,17.5,0,0,0,142.5,375h215A17.5,17.5,0,0,0,375,357.5V142.68A17.73,17.73,0,0,0,357.32,125Z" transform="translate(-25 -25)"/><path class="cls-1" d="M257.5,25H42.5A17.5,17.5,0,0,0,25,42.5v215A17.55,17.55,0,0,0,42.5,275H99a6,6,0,0,0,6-6V235a6,6,0,0,0-6-6H72V72H229v28.56a5.44,5.44,0,0,0,5.44,5.44H269a6,6,0,0,0,6-6V42.5A17.5,17.5,0,0,0,257.5,25Z" transform="translate(-25 -25)"/><rect class="cls-1" x="204" y="204" width="46" height="46"/><path class="cls-1" d="M125,281v27h48V281a6,6,0,0,0-6-6H131A6,6,0,0,0,125,281Z" transform="translate(-25 -25)"/></svg>
