<svg id="Layer_1" data-name="Layer 1" xmlns="http://www.w3.org/2000/svg" viewBox="0 0 245.45 350"><defs><style>.cls-1{fill:#4776E6;}</style></defs><title>solid-logo-black</title><path class="cls-1" d="M187.08,134.21l-27.48,27.48a4.61,4.61,0,0,0,0,6.52l17.6,17.6a4.61,4.61,0,0,0,6.52,0l16.39-16.39,78.22,78.22a4.61,4.61,0,0,1,0,6.52l-75,75a4.61,4.61,0,0,1-6.52,0l-75-75a4.61,4.61,0,0,1,0-6.52l11-11a4.61,4.61,0,0,0,0-6.52l-17.6-17.6a4.61,4.61,0,0,0-6.52,0l-26,26a18.44,18.44,0,0,0,0,26.07L187.08,368.86a18.44,18.44,0,0,0,26.07,0L317.44,264.58a18.44,18.44,0,0,0,0-26.07L213.15,134.21A18.44,18.44,0,0,0,187.08,134.21Z" transform="translate(-77.39 -24.26)"/><path class="cls-1" d="M240.82,230.13l-18.25-18.25a4.61,4.61,0,0,0-6.52,0l-12.67,12.67a4.61,4.61,0,0,1-6.52,0l-75-75a4.61,4.61,0,0,1,0-6.52l75-75a4.61,4.61,0,0,1,6.52,0l75,75a4.61,4.61,0,0,1,0,6.52l-12.09,12.09a4.61,4.61,0,0,0,0,6.52l18.25,18.25a4.61,4.61,0,0,0,6.52,0L317.44,160a18.44,18.44,0,0,0,0-26.07L213.15,29.66a18.44,18.44,0,0,0-26.07,0L82.79,134a18.44,18.44,0,0,0,0,26.07L187.08,264.31a18.44,18.44,0,0,0,26.07,0l27.67-27.67A4.61,4.61,0,0,0,240.82,230.13Z" transform="translate(-77.39 -24.26)"/></svg>
