<svg id="Layer_1" data-name="Layer 1" xmlns="http://www.w3.org/2000/svg" viewBox="0 0 854.98 300"><defs><style>.cls-1{fill:#f8f9fa;}</style></defs><title>solid_logo_extended_ashgrey</title><path class="cls-1" d="M264.13,249.13v-51.9a5,5,0,0,0-5-5H229.52a5,5,0,0,0-5,5v27.28H90.69V90.69H224.52v23.74a5,5,0,0,0,5,5h29.61a5,5,0,0,0,5-5V65a15,15,0,0,0-15-15H65A15,15,0,0,0,50,65V249.13a15,15,0,0,0,15,15H249.13A15,15,0,0,0,264.13,249.13Z" transform="translate(-50 -50)"/><path class="cls-1" d="M140.87,208.08h30.69a5,5,0,0,0,5-5V176.55H310.39V310.39H176.55V284.81a5,5,0,0,0-5-5H140.87a5,5,0,0,0-5,5V335a15,15,0,0,0,15,15H335a15,15,0,0,0,15-15V150.87a15,15,0,0,0-15-15H150.87a15,15,0,0,0-15,15v52.21A5,5,0,0,0,140.87,208.08Z" transform="translate(-50 -50)"/><path class="cls-1" d="M415.18,278.09a48.87,48.87,0,0,0,4.94,18.71,36.86,36.86,0,0,0,10.33,12.51,40.88,40.88,0,0,0,14.57,7,69,69,0,0,0,17.68,2.18,58.92,58.92,0,0,0,19-2.75,36.07,36.07,0,0,0,13.09-7.46,29.39,29.39,0,0,0,7.46-10.9,35.83,35.83,0,0,0,2.4-13.09q0-9.64-4.36-15.61A33.67,33.67,0,0,0,489,258.93a69.81,69.81,0,0,0-16.07-6.08q-9.08-2.29-18.6-4.47t-18.59-5.16a58.37,58.37,0,0,1-16.07-8,38.8,38.8,0,0,1-11.37-13q-4.36-7.92-4.36-20.08a40.38,40.38,0,0,1,3.56-16.53A41.18,41.18,0,0,1,418,171.36a51.93,51.93,0,0,1,17.56-9.87,74,74,0,0,1,24.32-3.67q14,0,24.45,3.9a48.63,48.63,0,0,1,17.33,10.67A44,44,0,0,1,512,188.12a52.6,52.6,0,0,1,3.44,19H500.57a37,37,0,0,0-3.34-16.3,30.52,30.52,0,0,0-9.06-11.25,38.76,38.76,0,0,0-13.08-6.42,55.58,55.58,0,0,0-15.15-2.07q-11.93,0-20.08,3.33a35.23,35.23,0,0,0-13,8.61,29.09,29.09,0,0,0-6.65,11.7,28.05,28.05,0,0,0-.69,12.86A22.37,22.37,0,0,0,426,220.48a40.49,40.49,0,0,0,12.39,7.92,93.27,93.27,0,0,0,16.18,5.05q8.84,2,18,4.13t17.79,5.16a54.85,54.85,0,0,1,15.27,8,37,37,0,0,1,10.67,13q4,7.92,4,19.85,0,23-15.83,35.58T459.94,331.8a82.14,82.14,0,0,1-23.87-3.33A52.81,52.81,0,0,1,417,318.37a46.44,46.44,0,0,1-12.51-16.76q-4.48-10-4.47-23.53h15.14Z" transform="translate(-50 -50)"/><path class="cls-1" d="M599.95,330.65a62,62,0,0,1-21.46-4.13A48,48,0,0,1,561,314.81a56.09,56.09,0,0,1-11.83-19.51q-4.36-11.71-4.36-27.31a83.93,83.93,0,0,1,3.44-24.45,57.73,57.73,0,0,1,10.33-19.85,49.08,49.08,0,0,1,17.21-13.43q10.33-4.93,24.1-4.93,14,0,24.32,4.93a49.68,49.68,0,0,1,17.21,13.31,55,55,0,0,1,10.22,19.85A88,88,0,0,1,655,268a79.59,79.59,0,0,1-3.9,25.71A57.94,57.94,0,0,1,640,313.44a49,49,0,0,1-17.45,12.74A55.68,55.68,0,0,1,599.95,330.65ZM640.34,268a81.09,81.09,0,0,0-2.3-19.74,46.71,46.71,0,0,0-7.11-16,34.21,34.21,0,0,0-12.4-10.67q-7.57-3.9-18.59-3.9-10.8,0-18.48,4.25A36.17,36.17,0,0,0,569,233.22a49.46,49.46,0,0,0-7.12,16.07,75.82,75.82,0,0,0-2.3,18.71,73.87,73.87,0,0,0,2.64,20.31,47.64,47.64,0,0,0,7.68,16,34.49,34.49,0,0,0,12.62,10.33,39.53,39.53,0,0,0,17.45,3.67q10.79,0,18.48-4.25a35.78,35.78,0,0,0,12.51-11.36A50.8,50.8,0,0,0,638,286.58,74.4,74.4,0,0,0,640.34,268Z" transform="translate(-50 -50)"/><path class="cls-1" d="M688.09,327.44V162.18h13.77V327.44H688.09Z" transform="translate(-50 -50)"/><path class="cls-1" d="M744.09,182.61V162.18h15.14v20.43H744.09Zm0.69,144.83V208.54h13.77v118.9H744.78Z" transform="translate(-50 -50)"/><path class="cls-1" d="M891.21,162.18H905V327.44H891.21V306.55h-0.46A37.24,37.24,0,0,1,883.06,317a46.57,46.57,0,0,1-10.33,7.46A55.41,55.41,0,0,1,861.15,329a45,45,0,0,1-11.71,1.61q-14.46,0-24.56-4.82a45.71,45.71,0,0,1-16.64-13.2,53.78,53.78,0,0,1-9.53-19.85,97.28,97.28,0,0,1-3-24.56,88.08,88.08,0,0,1,3.21-23.87,59.24,59.24,0,0,1,9.75-20.08,48.31,48.31,0,0,1,16.52-13.77q10-5.16,23.53-5.16A54.83,54.83,0,0,1,873,211a42.65,42.65,0,0,1,18.25,16.64V162.18Zm0,105.35a65.51,65.51,0,0,0-2.75-19.16,49.68,49.68,0,0,0-7.92-15.84,39,39,0,0,0-12.62-10.79,35.1,35.1,0,0,0-16.87-4q-10.79,0-18.59,4.25a36.59,36.59,0,0,0-12.86,11.59,49.94,49.94,0,0,0-7.34,17.1,77.53,77.53,0,0,0-1.84,21,58.34,58.34,0,0,0,3.1,19.85,42.17,42.17,0,0,0,8.61,14.57A36.71,36.71,0,0,0,835,315.16a40.88,40.88,0,0,0,16.07,3.1,37,37,0,0,0,17.21-3.9,36.2,36.2,0,0,0,12.62-10.67,49.19,49.19,0,0,0,7.69-16.07A73.36,73.36,0,0,0,891.21,267.53Z" transform="translate(-50 -50)"/></svg>